<mxfile host="app.diagrams.net" modified="2020-09-13T10:02:50.858Z" agent="5.0 (Windows NT 10.0; Win64; x64) AppleWebKit/537.36 (KHTML, like Gecko) Chrome/85.0.4183.102 Safari/537.36" etag="9e3ewDcMe3NAL3pJ8QKD" version="13.6.10" type="github">
  <diagram name="Page-1" id="03018318-947c-dd8e-b7a3-06fadd420f32">
    <mxGraphModel dx="1185" dy="662" grid="1" gridSize="10" guides="1" tooltips="1" connect="1" arrows="1" fold="1" page="1" pageScale="1" pageWidth="1100" pageHeight="850" background="#ffffff" math="0" shadow="0">
      <root>
        <mxCell id="0" />
        <mxCell id="1" parent="0" />
        <mxCell id="677b7b8949515195-1" value="" style="whiteSpace=wrap;html=1;rounded=0;shadow=0;labelBackgroundColor=none;strokeColor=#000000;strokeWidth=1;fillColor=none;fontFamily=Verdana;fontSize=12;fontColor=#000000;align=center;comic=1;" parent="1" vertex="1">
          <mxGeometry x="20" y="30" width="720" height="810" as="geometry" />
        </mxCell>
        <mxCell id="677b7b8949515195-2" value="LOGO" style="whiteSpace=wrap;html=1;rounded=0;shadow=0;labelBackgroundColor=none;strokeWidth=1;fontFamily=Verdana;fontSize=28;align=center;comic=1;" parent="1" vertex="1">
          <mxGeometry x="40" y="60" width="190" height="50" as="geometry" />
        </mxCell>
        <mxCell id="677b7b8949515195-9" value="" style="line;strokeWidth=1;html=1;rounded=0;shadow=0;labelBackgroundColor=none;fillColor=none;fontFamily=Verdana;fontSize=14;fontColor=#000000;align=center;comic=1;" parent="1" vertex="1">
          <mxGeometry x="30" y="176" width="720" height="10" as="geometry" />
        </mxCell>
        <mxCell id="R3c_TP9UUFSL7T_W99-w-1" value="version number" style="text;html=1;strokeColor=none;fillColor=none;align=center;verticalAlign=middle;whiteSpace=wrap;rounded=0;" vertex="1" parent="1">
          <mxGeometry x="40" y="120" width="90" height="20" as="geometry" />
        </mxCell>
        <mxCell id="R3c_TP9UUFSL7T_W99-w-3" value="" style="rounded=0;whiteSpace=wrap;html=1;fontSize=18;" vertex="1" parent="1">
          <mxGeometry x="280" y="200" width="440" height="80" as="geometry" />
        </mxCell>
        <mxCell id="R3c_TP9UUFSL7T_W99-w-4" value="&lt;font style=&quot;font-size: 16px&quot;&gt;ROW SYMBOL&lt;/font&gt;" style="ellipse;whiteSpace=wrap;html=1;aspect=fixed;fontSize=18;" vertex="1" parent="1">
          <mxGeometry x="640" y="200" width="80" height="80" as="geometry" />
        </mxCell>
        <mxCell id="R3c_TP9UUFSL7T_W99-w-5" value="&lt;font style=&quot;font-size: 11px&quot;&gt;COMMANDER HORN&lt;/font&gt;" style="whiteSpace=wrap;html=1;aspect=fixed;fontSize=18;" vertex="1" parent="1">
          <mxGeometry x="280" y="200" width="80" height="80" as="geometry" />
        </mxCell>
        <mxCell id="R3c_TP9UUFSL7T_W99-w-6" value="ROW TOTAL" style="whiteSpace=wrap;html=1;aspect=fixed;fontSize=18;" vertex="1" parent="1">
          <mxGeometry x="160" y="200" width="80" height="80" as="geometry" />
        </mxCell>
        <mxCell id="R3c_TP9UUFSL7T_W99-w-7" value="&lt;font style=&quot;font-size: 14px&quot;&gt;WEATHER ACTIVE&lt;/font&gt;" style="whiteSpace=wrap;html=1;aspect=fixed;fontSize=18;" vertex="1" parent="1">
          <mxGeometry x="360" y="200" width="80" height="80" as="geometry" />
        </mxCell>
        <mxCell id="R3c_TP9UUFSL7T_W99-w-8" value="HERO TOTAL" style="whiteSpace=wrap;html=1;aspect=fixed;fontSize=18;" vertex="1" parent="1">
          <mxGeometry x="440" y="200" width="80" height="80" as="geometry" />
        </mxCell>
        <mxCell id="R3c_TP9UUFSL7T_W99-w-9" value="REG TOTAL" style="whiteSpace=wrap;html=1;aspect=fixed;fontSize=18;" vertex="1" parent="1">
          <mxGeometry x="520" y="200" width="80" height="80" as="geometry" />
        </mxCell>
        <mxCell id="R3c_TP9UUFSL7T_W99-w-10" value="" style="rounded=0;whiteSpace=wrap;html=1;fontSize=18;" vertex="1" parent="1">
          <mxGeometry x="280" y="300" width="440" height="80" as="geometry" />
        </mxCell>
        <mxCell id="R3c_TP9UUFSL7T_W99-w-11" value="&lt;font style=&quot;font-size: 16px&quot;&gt;ROW SYMBOL&lt;/font&gt;" style="ellipse;whiteSpace=wrap;html=1;aspect=fixed;fontSize=18;" vertex="1" parent="1">
          <mxGeometry x="640" y="300" width="80" height="80" as="geometry" />
        </mxCell>
        <mxCell id="R3c_TP9UUFSL7T_W99-w-12" value="&lt;font style=&quot;font-size: 11px&quot;&gt;COMMANDER HORN&lt;/font&gt;" style="whiteSpace=wrap;html=1;aspect=fixed;fontSize=18;" vertex="1" parent="1">
          <mxGeometry x="280" y="300" width="80" height="80" as="geometry" />
        </mxCell>
        <mxCell id="R3c_TP9UUFSL7T_W99-w-13" value="ROW TOTAL" style="whiteSpace=wrap;html=1;aspect=fixed;fontSize=18;" vertex="1" parent="1">
          <mxGeometry x="160" y="300" width="80" height="80" as="geometry" />
        </mxCell>
        <mxCell id="R3c_TP9UUFSL7T_W99-w-14" value="&lt;span style=&quot;font-size: 14px&quot;&gt;WEATHER ACTIVE&lt;/span&gt;" style="whiteSpace=wrap;html=1;aspect=fixed;fontSize=18;" vertex="1" parent="1">
          <mxGeometry x="360" y="300" width="80" height="80" as="geometry" />
        </mxCell>
        <mxCell id="R3c_TP9UUFSL7T_W99-w-15" value="HERO TOTAL" style="whiteSpace=wrap;html=1;aspect=fixed;fontSize=18;" vertex="1" parent="1">
          <mxGeometry x="440" y="300" width="80" height="80" as="geometry" />
        </mxCell>
        <mxCell id="R3c_TP9UUFSL7T_W99-w-16" value="REG TOTAL" style="whiteSpace=wrap;html=1;aspect=fixed;fontSize=18;" vertex="1" parent="1">
          <mxGeometry x="520" y="300" width="80" height="80" as="geometry" />
        </mxCell>
        <mxCell id="R3c_TP9UUFSL7T_W99-w-17" value="" style="rounded=0;whiteSpace=wrap;html=1;fontSize=18;" vertex="1" parent="1">
          <mxGeometry x="280" y="400" width="440" height="80" as="geometry" />
        </mxCell>
        <mxCell id="R3c_TP9UUFSL7T_W99-w-18" value="&lt;font style=&quot;font-size: 16px&quot;&gt;ROW SYMBOL&lt;/font&gt;" style="ellipse;whiteSpace=wrap;html=1;aspect=fixed;fontSize=18;" vertex="1" parent="1">
          <mxGeometry x="640" y="400" width="80" height="80" as="geometry" />
        </mxCell>
        <mxCell id="R3c_TP9UUFSL7T_W99-w-19" value="&lt;font style=&quot;font-size: 11px&quot;&gt;COMMANDER HORN&lt;/font&gt;" style="whiteSpace=wrap;html=1;aspect=fixed;fontSize=18;" vertex="1" parent="1">
          <mxGeometry x="280" y="400" width="80" height="80" as="geometry" />
        </mxCell>
        <mxCell id="R3c_TP9UUFSL7T_W99-w-20" value="ROW TOTAL" style="whiteSpace=wrap;html=1;aspect=fixed;fontSize=18;" vertex="1" parent="1">
          <mxGeometry x="160" y="400" width="80" height="80" as="geometry" />
        </mxCell>
        <mxCell id="R3c_TP9UUFSL7T_W99-w-21" value="&lt;span style=&quot;font-size: 14px&quot;&gt;WEATHER ACTIVE&lt;/span&gt;" style="whiteSpace=wrap;html=1;aspect=fixed;fontSize=18;" vertex="1" parent="1">
          <mxGeometry x="360" y="400" width="80" height="80" as="geometry" />
        </mxCell>
        <mxCell id="R3c_TP9UUFSL7T_W99-w-22" value="HERO TOTAL" style="whiteSpace=wrap;html=1;aspect=fixed;fontSize=18;" vertex="1" parent="1">
          <mxGeometry x="440" y="400" width="80" height="80" as="geometry" />
        </mxCell>
        <mxCell id="R3c_TP9UUFSL7T_W99-w-23" value="REG TOTAL" style="whiteSpace=wrap;html=1;aspect=fixed;fontSize=18;" vertex="1" parent="1">
          <mxGeometry x="520" y="400" width="80" height="80" as="geometry" />
        </mxCell>
        <mxCell id="R3c_TP9UUFSL7T_W99-w-24" value="" style="rounded=0;whiteSpace=wrap;html=1;fontSize=18;" vertex="1" parent="1">
          <mxGeometry x="280" y="530" width="440" height="80" as="geometry" />
        </mxCell>
        <mxCell id="R3c_TP9UUFSL7T_W99-w-25" value="&lt;font style=&quot;font-size: 16px&quot;&gt;ROW SYMBOL&lt;/font&gt;" style="ellipse;whiteSpace=wrap;html=1;aspect=fixed;fontSize=18;" vertex="1" parent="1">
          <mxGeometry x="640" y="530" width="80" height="80" as="geometry" />
        </mxCell>
        <mxCell id="R3c_TP9UUFSL7T_W99-w-26" value="&lt;font style=&quot;font-size: 11px&quot;&gt;COMMANDER HORN&lt;/font&gt;" style="whiteSpace=wrap;html=1;aspect=fixed;fontSize=18;" vertex="1" parent="1">
          <mxGeometry x="280" y="530" width="80" height="80" as="geometry" />
        </mxCell>
        <mxCell id="R3c_TP9UUFSL7T_W99-w-27" value="ROW TOTAL" style="whiteSpace=wrap;html=1;aspect=fixed;fontSize=18;" vertex="1" parent="1">
          <mxGeometry x="160" y="530" width="80" height="80" as="geometry" />
        </mxCell>
        <mxCell id="R3c_TP9UUFSL7T_W99-w-28" value="&lt;span style=&quot;font-size: 14px&quot;&gt;WEATHER ACTIVE&lt;/span&gt;" style="whiteSpace=wrap;html=1;aspect=fixed;fontSize=18;" vertex="1" parent="1">
          <mxGeometry x="360" y="530" width="80" height="80" as="geometry" />
        </mxCell>
        <mxCell id="R3c_TP9UUFSL7T_W99-w-29" value="HERO TOTAL" style="whiteSpace=wrap;html=1;aspect=fixed;fontSize=18;" vertex="1" parent="1">
          <mxGeometry x="440" y="530" width="80" height="80" as="geometry" />
        </mxCell>
        <mxCell id="R3c_TP9UUFSL7T_W99-w-30" value="REG TOTAL" style="whiteSpace=wrap;html=1;aspect=fixed;fontSize=18;" vertex="1" parent="1">
          <mxGeometry x="520" y="530" width="80" height="80" as="geometry" />
        </mxCell>
        <mxCell id="R3c_TP9UUFSL7T_W99-w-31" value="" style="rounded=0;whiteSpace=wrap;html=1;fontSize=18;" vertex="1" parent="1">
          <mxGeometry x="280" y="630" width="440" height="80" as="geometry" />
        </mxCell>
        <mxCell id="R3c_TP9UUFSL7T_W99-w-32" value="&lt;font style=&quot;font-size: 16px&quot;&gt;ROW SYMBOL&lt;/font&gt;" style="ellipse;whiteSpace=wrap;html=1;aspect=fixed;fontSize=18;" vertex="1" parent="1">
          <mxGeometry x="640" y="630" width="80" height="80" as="geometry" />
        </mxCell>
        <mxCell id="R3c_TP9UUFSL7T_W99-w-33" value="&lt;font style=&quot;font-size: 11px&quot;&gt;COMMANDER HORN&lt;/font&gt;" style="whiteSpace=wrap;html=1;aspect=fixed;fontSize=18;" vertex="1" parent="1">
          <mxGeometry x="280" y="630" width="80" height="80" as="geometry" />
        </mxCell>
        <mxCell id="R3c_TP9UUFSL7T_W99-w-34" value="ROW TOTAL" style="whiteSpace=wrap;html=1;aspect=fixed;fontSize=18;" vertex="1" parent="1">
          <mxGeometry x="160" y="630" width="80" height="80" as="geometry" />
        </mxCell>
        <mxCell id="R3c_TP9UUFSL7T_W99-w-35" value="&lt;span style=&quot;font-size: 14px&quot;&gt;WEATHER ACTIVE&lt;/span&gt;" style="whiteSpace=wrap;html=1;aspect=fixed;fontSize=18;" vertex="1" parent="1">
          <mxGeometry x="360" y="630" width="80" height="80" as="geometry" />
        </mxCell>
        <mxCell id="R3c_TP9UUFSL7T_W99-w-36" value="HERO TOTAL" style="whiteSpace=wrap;html=1;aspect=fixed;fontSize=18;" vertex="1" parent="1">
          <mxGeometry x="440" y="630" width="80" height="80" as="geometry" />
        </mxCell>
        <mxCell id="R3c_TP9UUFSL7T_W99-w-37" value="REG TOTAL" style="whiteSpace=wrap;html=1;aspect=fixed;fontSize=18;" vertex="1" parent="1">
          <mxGeometry x="520" y="630" width="80" height="80" as="geometry" />
        </mxCell>
        <mxCell id="R3c_TP9UUFSL7T_W99-w-38" value="" style="rounded=0;whiteSpace=wrap;html=1;fontSize=18;" vertex="1" parent="1">
          <mxGeometry x="280" y="730" width="440" height="80" as="geometry" />
        </mxCell>
        <mxCell id="R3c_TP9UUFSL7T_W99-w-39" value="&lt;font style=&quot;font-size: 16px&quot;&gt;ROW SYMBOL&lt;/font&gt;" style="ellipse;whiteSpace=wrap;html=1;aspect=fixed;fontSize=18;" vertex="1" parent="1">
          <mxGeometry x="640" y="730" width="80" height="80" as="geometry" />
        </mxCell>
        <mxCell id="R3c_TP9UUFSL7T_W99-w-40" value="&lt;font style=&quot;font-size: 11px&quot;&gt;COMMANDER HORN&lt;/font&gt;" style="whiteSpace=wrap;html=1;aspect=fixed;fontSize=18;" vertex="1" parent="1">
          <mxGeometry x="280" y="730" width="80" height="80" as="geometry" />
        </mxCell>
        <mxCell id="R3c_TP9UUFSL7T_W99-w-41" value="ROW TOTAL" style="whiteSpace=wrap;html=1;aspect=fixed;fontSize=18;" vertex="1" parent="1">
          <mxGeometry x="160" y="730" width="80" height="80" as="geometry" />
        </mxCell>
        <mxCell id="R3c_TP9UUFSL7T_W99-w-42" value="&lt;span style=&quot;font-size: 14px&quot;&gt;WEATHER ACTIVE&lt;/span&gt;" style="whiteSpace=wrap;html=1;aspect=fixed;fontSize=18;" vertex="1" parent="1">
          <mxGeometry x="360" y="730" width="80" height="80" as="geometry" />
        </mxCell>
        <mxCell id="R3c_TP9UUFSL7T_W99-w-43" value="HERO TOTAL" style="whiteSpace=wrap;html=1;aspect=fixed;fontSize=18;" vertex="1" parent="1">
          <mxGeometry x="440" y="730" width="80" height="80" as="geometry" />
        </mxCell>
        <mxCell id="R3c_TP9UUFSL7T_W99-w-44" value="REG TOTAL" style="whiteSpace=wrap;html=1;aspect=fixed;fontSize=18;" vertex="1" parent="1">
          <mxGeometry x="520" y="730" width="80" height="80" as="geometry" />
        </mxCell>
        <mxCell id="R3c_TP9UUFSL7T_W99-w-46" value="" style="line;strokeWidth=1;html=1;rounded=0;shadow=0;labelBackgroundColor=none;fillColor=none;fontFamily=Verdana;fontSize=14;fontColor=#000000;align=center;comic=1;" vertex="1" parent="1">
          <mxGeometry x="20" y="500" width="720" height="10" as="geometry" />
        </mxCell>
        <mxCell id="R3c_TP9UUFSL7T_W99-w-47" value="TOTAL" style="whiteSpace=wrap;html=1;aspect=fixed;fontSize=18;" vertex="1" parent="1">
          <mxGeometry x="40" y="300" width="80" height="80" as="geometry" />
        </mxCell>
        <mxCell id="R3c_TP9UUFSL7T_W99-w-48" value="TOTAL" style="whiteSpace=wrap;html=1;aspect=fixed;fontSize=18;" vertex="1" parent="1">
          <mxGeometry x="40" y="630" width="80" height="80" as="geometry" />
        </mxCell>
        <mxCell id="R3c_TP9UUFSL7T_W99-w-49" value="&lt;font style=&quot;font-size: 16px&quot;&gt;End Round&lt;/font&gt;" style="rounded=1;whiteSpace=wrap;html=1;fontSize=18;" vertex="1" parent="1">
          <mxGeometry x="610" y="67.5" width="90" height="35" as="geometry" />
        </mxCell>
        <mxCell id="R3c_TP9UUFSL7T_W99-w-51" value="&lt;font style=&quot;font-size: 21px&quot;&gt;SCORE&lt;/font&gt;" style="text;html=1;strokeColor=none;fillColor=none;align=center;verticalAlign=middle;whiteSpace=wrap;rounded=0;fontSize=18;" vertex="1" parent="1">
          <mxGeometry x="400" y="50" width="40" height="20" as="geometry" />
        </mxCell>
        <mxCell id="R3c_TP9UUFSL7T_W99-w-52" value="PLAYER ONE: 0" style="text;html=1;strokeColor=none;fillColor=none;align=center;verticalAlign=middle;whiteSpace=wrap;rounded=0;fontSize=18;" vertex="1" parent="1">
          <mxGeometry x="350" y="80" width="140" height="20" as="geometry" />
        </mxCell>
        <mxCell id="R3c_TP9UUFSL7T_W99-w-53" value="PLAYER TWO: 0" style="text;html=1;strokeColor=none;fillColor=none;align=center;verticalAlign=middle;whiteSpace=wrap;rounded=0;fontSize=18;" vertex="1" parent="1">
          <mxGeometry x="350" y="100" width="140" height="20" as="geometry" />
        </mxCell>
      </root>
    </mxGraphModel>
  </diagram>
</mxfile>
